<svg height="2492" viewBox="37.77 38.66 424.46 424.07" width="2500" xmlns="http://www.w3.org/2000/svg"><path d="m459.81 460.54-209.81-302.7v-119.18l210.35 416.99s1.88 3.01-.54 4.89z" fill="#b3252a"/><path d="m459.81 460.54c-.14.11-.3.22-.47.33-3.11 1.86-6.31-2.19-9.17-5.04-2.86-2.87-200.17-207.49-200.17-207.49v-90.5zm-419.62 0 209.81-302.7v-119.18l-210.35 416.99s-1.88 3.01.54 4.89z" fill="#ee3235"/><path d="m40.19 460.54c.14.11.3.22.47.33 3.11 1.86 6.31-2.19 9.17-5.04 2.86-2.87 200.17-207.49 200.17-207.49v-90.5z" fill="#b3252a"/><path d="m251.29 319.08v56.89l-35.56 7.36-35.58 7.37 35.58-35.81z" fill="#01ad5f"/><path d="m322.45 390.7-35.58-7.37-35.58-7.36v-56.89l35.58 35.81z" fill="#33b66c"/><path d="m322.45 390.7h-142.3l35.58-7.37 35.56-7.36 35.58 7.36z" fill="#00683a"/></svg>